<?xml version="1.0" encoding="UTF-8"?>
<svg id="Calque_1" data-name="Calque 1" xmlns="http://www.w3.org/2000/svg" viewBox="0 0 743.21 562.73">
  <defs>
    <style>
      .cls-1 {
        fill: #000000;
      }

      .cls-1, .cls-2 {
        stroke-width: 0px;
      }

      .cls-2 {
        fill: #2bffc8;
      }
    </style>
  </defs>
  <path class="cls-1" d="M0,339.98v-34.97h100.71v194.78c0,7.7,2.11,13.7,6.29,18.01,4.2,4.31,10.03,6.46,17.49,6.46h57.36v34.97h-59.11c-18.88,0-33.68-5.29-44.41-15.91-10.73-10.61-16.08-25.11-16.08-43.54v-159.8H0Z"/>
  <path class="cls-2" d="M282,562.73c-12.36,0-23.49-1.81-33.39-5.42-9.92-3.61-18.36-8.75-25.36-15.4-6.99-6.63-12.41-14.61-16.26-23.95-3.84-9.32-5.76-19.69-5.76-31.12V75.88c0-11.43,1.92-21.8,5.76-31.12,3.86-9.33,9.28-17.32,16.26-23.96,7-6.64,15.44-11.77,25.36-15.38,9.9-3.61,21.03-5.42,33.39-5.42s23.48,1.75,33.39,5.25c9.9,3.49,18.36,8.57,25.36,15.21,6.99,6.64,12.41,14.57,16.25,23.78,3.86,9.21,5.78,19.64,5.78,31.29v411.32c0,11.43-1.86,21.86-5.59,31.29-3.74,9.45-9.09,17.43-16.09,23.96-6.99,6.53-15.51,11.6-25.53,15.21-10.03,3.61-21.22,5.42-33.57,5.42ZM239.69,486.85c0,13.06,3.73,23.31,11.2,30.76,7.46,7.47,17.83,11.2,31.12,11.2s23.36-3.73,30.95-11.2c7.57-7.46,11.35-17.7,11.35-30.76V75.88c0-13.06-3.78-23.31-11.35-30.78-7.58-7.46-17.9-11.18-30.95-11.18s-23.38,3.73-30.95,11.18c-7.58,7.47-11.37,17.71-11.37,30.78v410.96Z"/>
  <path class="cls-1" d="M472.02,562.73c-12.36,0-23.49-1.75-33.39-5.25-9.92-3.5-18.36-8.51-25.36-15.04-6.99-6.52-12.36-14.44-16.08-23.78-3.74-9.32-5.61-19.69-5.61-31.12v-48.96c0-11.41,1.86-21.78,5.61-31.12,3.71-9.32,9.09-17.25,16.08-23.78,7-6.53,15.44-11.54,25.36-15.04,9.9-3.5,21.03-5.25,33.39-5.25,10.96,0,21.03,1.52,30.25,4.55,9.21,3.03,17.3,7.46,24.3,13.29,6.99,5.83,12.76,12.82,17.3,20.97,4.55,8.17,7.53,17.37,8.92,27.63h-38.46c-1.64-9.79-6.3-17.71-14-23.78-7.68-6.06-17.13-9.09-28.32-9.09-13.29,0-23.66,3.67-31.12,11.01-7.47,7.34-11.2,17.54-11.2,30.59v48.96c0,13.06,3.73,23.19,11.2,30.42,7.46,7.23,17.83,10.84,31.12,10.84,11.18,0,20.63-2.97,28.32-8.92,7.7-5.95,12.36-13.82,14-23.61h38.46c-3.27,20.52-12.07,36.72-26.41,48.61-14.33,11.9-32.46,17.84-54.37,17.84Z"/>
  <path class="cls-1" d="M661.23,562.73c-12.36,0-23.49-1.81-33.39-5.42-9.92-3.61-18.36-8.75-25.36-15.4-6.99-6.63-12.41-14.61-16.26-23.95-3.84-9.32-5.76-19.69-5.76-31.12v-47.91c0-11.43,1.92-21.8,5.76-31.12,3.86-9.33,9.28-17.32,16.26-23.96,7-6.64,15.44-11.77,25.36-15.38,9.9-3.61,21.03-5.42,33.39-5.42s23.48,1.75,33.39,5.25c9.9,3.49,18.36,8.57,25.36,15.21,6.99,6.64,12.41,14.57,16.25,23.78,3.86,9.21,5.78,19.64,5.78,31.29v48.26c0,11.43-1.86,21.86-5.59,31.29-3.74,9.45-9.09,17.43-16.09,23.96-6.99,6.53-15.51,11.6-25.53,15.21-10.03,3.61-21.22,5.42-33.57,5.42ZM618.91,486.85c0,13.06,3.73,23.31,11.2,30.76,7.46,7.47,17.83,11.2,31.12,11.2s23.36-3.73,30.95-11.2c7.57-7.46,11.35-17.7,11.35-30.76v-47.91c0-13.06-3.78-23.31-11.35-30.78-7.58-7.46-17.9-11.18-30.95-11.18s-23.38,3.73-30.95,11.18c-7.58,7.47-11.37,17.71-11.37,30.78v47.91Z"/>
  <path class="cls-1" d="M395.18,234.95h348.03v34.97h-348.03v-34.97Z"/>
  <path class="cls-1" d="M.75,234.97h69.24v-122.74H9.5v-34.62h97.91v157.36h56.3v34.97H.75v-34.97ZM56,24.82c0-6.76,2.16-12.18,6.47-16.26,4.31-4.07,10.07-6.12,17.3-6.12h8.39c7.23,0,12.99,2.05,17.32,6.12,4.31,4.08,6.46,9.5,6.46,16.26s-2.15,12.12-6.46,16.09c-4.33,3.97-10.2,5.95-17.66,5.95h-8.05c-7.23,0-12.99-1.98-17.3-5.95-4.31-3.97-6.47-9.32-6.47-16.09Z"/>
</svg>